<svg id="Layer_1" data-name="Layer 1" xmlns="http://www.w3.org/2000/svg" viewBox="0 0 48 48"><defs><style>.cls-1{fill:#f26674;}.cls-2{fill:#72aaed;}.cls-3{fill:#425b72;}.cls-4{fill:#ffd0b0;}.cls-5{fill:#2c435e;}.cls-6{fill:#3b506d;}.cls-7{fill:#c6c3d8;}</style></defs><title>transfer, man, employee, user, avatar, arrow, refresh</title><path class="cls-1" d="M42.6,5.4v6.85H35.75l2.78-2.78A20.55,20.55,0,0,0,3.44,24H.5A23.49,23.49,0,0,1,40.61,7.39l0,0Z"/><path class="cls-2" d="M5.4,42.6V35.75h6.85L9.47,38.53A20.55,20.55,0,0,0,44.56,24H47.5A23.49,23.49,0,0,1,7.39,40.61l0,0Z"/><line class="cls-3" x1="42.6" y1="5.4" x2="40.61" y2="7.39"/><rect class="cls-4" x="18.12" y="9.31" width="11.75" height="14.69" rx="5.87"/><path class="cls-5" d="M33.79,33.79v2H14.21v-2a9.8,9.8,0,0,1,5.64-8.87,8.74,8.74,0,0,1,1.32-.5,5.66,5.66,0,0,1,.9-.23,9.9,9.9,0,0,1,3.86,0,5.66,5.66,0,0,1,.9.23,8.74,8.74,0,0,1,1.32.5A9.8,9.8,0,0,1,33.79,33.79Z"/><path class="cls-6" d="M26.94,28.9l1,2L24,35.75l-3.92-4.9,1-2-2-1,.75-3a8.74,8.74,0,0,1,1.32-.5,5.66,5.66,0,0,1,.9-.23,9.9,9.9,0,0,1,3.86,0,5.66,5.66,0,0,1,.9.23,8.74,8.74,0,0,1,1.32.5l.75,3Z"/><path class="cls-7" d="M26.83,24.42,25,31.83l-1,3.92-1-3.92-1.85-7.41a5.66,5.66,0,0,1,.9-.23,9.9,9.9,0,0,1,3.86,0A5.66,5.66,0,0,1,26.83,24.42Z"/><path class="cls-1" d="M23,24h2a0,0,0,0,1,0,0v1a1,1,0,0,1-1,1h0a1,1,0,0,1-1-1V24a0,0,0,0,1,0,0Z"/><path class="cls-1" d="M25,26.94v4.89l-1,3.92-1-3.92V26.94a1,1,0,0,1,2,0Z"/><path class="cls-5" d="M21.06,8.33h9.79a0,0,0,0,1,0,0v0A5.87,5.87,0,0,1,25,14.21H21.06a2.94,2.94,0,0,1-2.94-2.94v0A2.94,2.94,0,0,1,21.06,8.33Z"/><path class="cls-5" d="M18.61,11.27h0a1.47,1.47,0,0,1,1.47,1.47v1.47a2.94,2.94,0,0,1-2.94,2.94h0a0,0,0,0,1,0,0V12.74A1.47,1.47,0,0,1,18.61,11.27Z"/><path class="cls-5" d="M27.92,11.27h0a2.94,2.94,0,0,1,2.94,2.94v1.47a1.47,1.47,0,0,1-1.47,1.47h0a1.47,1.47,0,0,1-1.47-1.47V11.27a0,0,0,0,1,0,0Z" transform="translate(58.77 28.42) rotate(180)"/></svg>